<?xml version="1.0" encoding="utf-8"?>
<!-- Generator: Adobe Illustrator 25.4.1, SVG Export Plug-In . SVG Version: 6.00 Build 0)  -->
<svg version="1.0" id="Layer_1" xmlns="http://www.w3.org/2000/svg" xmlns:xlink="http://www.w3.org/1999/xlink" x="0px" y="0px"
	 viewBox="0 0 689.8 542.5" style="enable-background:new 0 0 689.8 542.5;" xml:space="preserve">
<style type="text/css">
	.st0{fill:#FBBA00;}
	.st1{fill:#003764;}
</style>
<g>
	<g>
		<path class="st0" d="M367.7,175.6l18.3-9.3l-24.2,3.8l15.4-19l-20.5,13.3l6.3-23.7l-13.4,20.5l-3.9-24.2l-3.9,24.1l-13.4-20.5
			l6.4,23.7L314.4,151l15.4,19l-24.2-3.7l18.4,9.3c-8.9,1.2-15.9,3.7-23.2,3.7v4.4c9.6,0,18.8-4.3,32.5-4.3c9.1,0,12.6,4.3,12.6,4.3
			s3.5-4.3,12.6-4.3c13.7,0,22.9,4.3,32.5,4.3v-4.4C383.6,179.3,376.6,176.8,367.7,175.6"/>
		<path class="st1" d="M365.5,267c3-0.4,6.1-0.6,9.2-0.7v-38.4h-9.2V267z M300.8,188.1V199c6.8,0,12.4,5.5,12.4,12.4c0,0,0,0,0,0
			l0,0V222h12.9v-11.9h6.9V222h9.3v-24.2h6.9V222h9.3v-11.9h6.9V222h13v-10.9c0.1-6.8,5.6-12.2,12.4-12.1v-10.9H300.8z M316.9,284.6
			c3-1.9,6-3.7,9.2-5.4v-51.2h-9.2V284.6z M349.3,270c3-0.8,6.1-1.5,9.2-2v-40.1h-9.2V270z M333.1,227.9h9.2v44.3
			c-3.1,1.1-6.2,2.2-9.2,3.6V227.9z"/>
	</g>
	<g>
		<path class="st1" d="M148.4,353.7c1.2-1.8,2.8-6.4,3.3-10.7c-0.4-0.7-1.4-1-2.1-0.5c-0.2,0.1-0.4,0.3-0.5,0.4
			c-1.1,2.6-5,10-14.3,10c-9.3,0-17.9-7.6-17.9-20.9c0-13.5,8.5-19.3,17-19.3c8.9,0,12.3,4.7,13.8,10.1c0.7,0.7,1.7,0.7,2.4,0
			c0.1-0.1,0.1-0.1,0.2-0.2c-0.5-3.6-0.8-7.3-0.9-10.9c-0.8,0-7.2-1.9-13.6-1.9c-7.7,0-14.5,2-19.4,5.8c-4.9,3.8-8.4,9.8-8.4,17.9
			c0,7.1,3.5,13.8,9.5,17.8c5.1,3.5,11.2,4.6,17.5,4.6C141.8,355.8,145.5,354.2,148.4,353.7 M196.8,354.8c1.1-1.9,2.5-6.9,3-11
			c-0.5-0.8-1.5-1.1-2.3-0.6c-0.1,0.1-0.2,0.1-0.3,0.2c-2.9,8-6.6,8.2-12.9,8.2c-5.7,0-7.5-0.4-8.4-1.4s-1.1-4.2-1.1-7.2v-7.2
			c0-2,0-2.3,1.9-2.3h4.7c5.3,0,5.8,0.8,6.6,3.8l0.5,1.9c0.7,0.6,1.7,0.6,2.4,0c0,0,0.1-0.1,0.1-0.2c-0.2-2.9-0.2-4.7-0.2-7.2
			c0-2.3,0-4.1,0.2-7c-0.6-0.7-1.6-0.9-2.3-0.3c-0.1,0-0.1,0.1-0.2,0.1l-0.5,1.9c-0.8,3-1.3,3.8-6.6,3.8h-4.7c-1.9,0-1.9-0.2-1.9-2
			v-11.1c0-3.1,0.1-3.2,3.6-3.2h4.4c2.4,0,6.9,0,8.5,2.4c0.9,1.5,1.5,3.1,1.8,4.8c0.7,0.7,1.9,0.6,2.5-0.1c0,0,0-0.1,0.1-0.1
			c-0.5-4.3-1-9-1.1-10.1c-3.1,0.3-6.2,0.4-9.2,0.3h-14.1c-1.6,0-3.2,0-4.8-0.1s-3-0.1-4.5-0.2c-0.7,0.6-0.9,1.6-0.3,2.4
			c0,0,0.1,0.1,0.1,0.1l1.4,0.3c3.8,0.8,4.2,1.1,4.2,8V344c0,6.9-0.4,7.5-4.7,8l-2.7,0.3c-0.7,0.5-0.6,2.2,0.2,2.5
			c4.8-0.2,7.9-0.3,11-0.3h8.8c2.7,0,5.4,0,8.2,0.1C190.9,354.7,193.8,354.7,196.8,354.8 M249,332.5c0,12.1-5.9,19.6-17.8,19.6
			c-7.6,0-8.6-3.2-8.6-9.5v-23.7c0-2.2,0-3.5,0.6-3.9c0.8-0.7,2.7-1.1,6-1.1C240.5,313.8,249,320.2,249,332.5 M257.9,332.6
			c0-9.2-4.7-16.4-13.7-19.5c-4.9-1.6-10-2.3-15.1-2.2c-8.1,0-13.6,0.2-19.2,0.6c-0.9,0.3-1,2.2-0.1,2.5l3,0.4
			c2.3,0.3,2.4,2,2.4,8.5v21.1c0,6.9-0.4,7.3-4.7,8l-1.9,0.3c-0.7,0.5-0.6,2.2,0.2,2.5c3.9-0.2,7-0.3,10.1-0.3
			c1.5,0,3.4,0.1,5.4,0.2s4.4,0.3,6.6,0.3c5,0,10.6-0.8,15-3.1C253.8,347.8,257.8,340.5,257.9,332.6 M283.4,335.8h-6.9
			c-2.2,0-2.4-0.2-1.3-2.9l3.6-8.9c0.4-1.2,1-2.3,1.6-3.4h0.2c0.6,1.1,1.1,2.3,1.5,3.6l3.1,8.5C286.3,335.6,286,335.8,283.4,335.8
			 M305.2,352.2l-1.6-0.3c-3.6-0.7-4.5-2-5.7-5.3l-8.9-23.8c-2.3-6.1-3.9-11.2-4.3-12.2c-0.2-0.6-0.8-0.8-1.6-0.5
			c-0.9,1.7-2.4,3-4.2,3.8c-0.2,1.9-0.9,4.3-2.6,8.4l-9.5,22.9c-2,4.8-3.1,5.9-6.2,6.6l-2.3,0.5c-0.6,0.6-0.7,1.6-0.1,2.3
			c0.1,0.1,0.2,0.2,0.3,0.2c1.8-0.1,4.2-0.3,7-0.3s5.4,0.1,7.9,0.3c1-0.2,1.1-2,0.3-2.5l-2.7-0.5c-1.9-0.4-2.2-0.8-1.1-4l2.3-6.4
			c0.8-2.3,1.1-2.4,3.4-2.4h9.5c2.3,0,2.6,0.1,3.4,2.4l2.4,6.5c1.2,3.1,1.3,3.7-1.3,4.1l-2,0.3c-0.7,0.5-0.8,1.4-0.3,2
			c0.1,0.2,0.3,0.4,0.6,0.5c2.5-0.2,5.4-0.3,9-0.3c3.4,0,5.7,0.1,8.2,0.3c0.7-0.3,1.1-1.2,0.7-1.9
			C305.6,352.6,305.4,352.4,305.2,352.2 M330.9,332.6c-4.9,0-5,0-5-2.5v-13.5c0-2.6,0.7-2.8,4.4-2.8c7,0,10.4,4.4,10.4,9.4
			C340.7,330,337.4,332.6,330.9,332.6 M340,335.1h0.2l-0.1-0.1c-0.3-0.4-0.3-1.1,0-1.5c3.9-1.4,8.9-4.3,8.9-10.6
			c0-10.5-10-11.9-19.3-11.9c-5.5,0-11,0.2-16.5,0.6c-1,0.3-0.8,2.4,0,2.5l2.8,0.4c2.3,0.3,2.4,2,2.4,8.5V344c0,6.9-0.4,7.1-4.7,8
			l-1.5,0.3c-0.7,0.5-0.8,1.4-0.4,2c0.1,0.2,0.3,0.4,0.6,0.5c3.5-0.2,6.6-0.3,9.7-0.3c3.2,0,6.4,0.1,10.5,0.3c0.8-0.3,0.9-2,0.2-2.5
			l-2.3-0.3c-4.3-0.6-4.7-1.1-4.7-8v-7.1c0-1.4,0.2-1.6,2.8-1.6c1,0,2,0.3,2.9,0.8h0.2c30.3,39.2,56.8,29,56.8,29
			c4-1.7,1.7-2.5,1.7-2.5C364.1,371.8,341.8,338,340,335.1 M408.3,313.4c0.6-0.7,0.5-1.7-0.1-2.2c-0.1-0.1-0.2-0.2-0.4-0.2
			c-2.3,0.2-4.7,0.3-7.1,0.3c-2.7,0-5.3-0.1-8.2-0.3c-0.7,0.5-1,1.4-0.5,2.1c0.1,0.1,0.2,0.3,0.3,0.4l1.6,0.3c3,0.6,3.1,1.3,2.4,3.4
			c-1,2.9-3.8,9.8-5.9,14.3c-1.9,4.2-3.6,8.4-5.6,12.5c-1.5-3.3-3.2-7-5.7-12.6l-4.9-11c-2.2-4.9-2.2-6.2,0.4-6.6l2.1-0.3
			c0.7-0.5,0.8-1.5,0.3-2.2c-0.1-0.1-0.2-0.2-0.3-0.3c-3.2,0.2-6.1,0.3-9.6,0.3c-3.1,0-6.4-0.1-9-0.3c-0.7,0.7-0.8,1.8-0.1,2.5
			c0,0,0,0,0,0l3.3,0.8c2.4,0.6,2.8,1.1,5.8,7.7l11.2,25c1.2,2.8,2.3,5.6,3.3,8.5c0.3,0.3,0.8,0.4,1.2,0.4c0.4,0,0.9-0.1,1.2-0.4
			c1.2-3.3,4.1-10.5,7.1-16.9l7.6-16.3c3.2-6.8,3.8-7.7,6.8-8.3L408.3,313.4z M432,344v-22.3c0-6.9,0.4-7.3,4.7-8l1.9-0.3
			c0.7-0.5,0.6-2.2-0.2-2.5c-3.9,0.2-7,0.3-10.1,0.3s-6.3-0.1-10.1-0.3c-0.8,0.3-0.9,2-0.2,2.5l1.9,0.3c4.3,0.7,4.7,1.1,4.7,8v22.3
			c0,6.9-0.4,7.3-4.7,8l-1.9,0.3c-0.7,0.5-0.6,2.2,0.2,2.5c3.9-0.2,7-0.3,10.1-0.3s6.4,0.1,10.1,0.3c0.8-0.3,0.9-2,0.2-2.5l-1.9-0.3
			C432.4,351.3,432,350.9,432,344 M486,354.7c1.1-1.9,2.5-6.9,3-11c-0.5-0.8-1.5-1.1-2.3-0.6c-0.1,0.1-0.2,0.1-0.3,0.2
			c-2.9,8-6.6,8.2-12.6,8.2c-5.2,0-6.8-0.7-7.7-1.6s-1.1-3.8-1.1-6.9v-21.4c0-6.9,0.5-7,4.7-8l1.3-0.3c0.7-0.5,0.6-2.2-0.2-2.5
			c-3.3,0.2-6.4,0.3-9.5,0.3s-6.3-0.1-10.1-0.3c-0.8,0.3-0.9,2-0.2,2.5l1.9,0.3c4.3,0.7,4.7,1.1,4.7,8v22.3c0,6.9-0.4,7.3-4.7,8
			l-1.9,0.3c-0.7,0.5-0.6,2.2,0.2,2.5c3.9-0.2,7-0.3,10.1-0.3h8.2c2.6,0,5.2,0,7.9,0.1S482.9,354.6,486,354.7 M531.9,354.7
			c1.1-1.9,2.5-6.9,3-11c-0.3-0.9-1.9-1.1-2.6-0.4c-2.9,8-6.6,8.2-12.6,8.2c-5.2,0-6.8-0.7-7.7-1.6c-0.9-0.9-1.1-3.8-1.1-6.9v-21.5
			c0-6.9,0.5-7,4.7-8l1.3-0.3c0.7-0.5,0.6-2.2-0.2-2.5c-3.3,0.2-6.4,0.3-9.5,0.3s-6.3-0.1-10.1-0.3c-0.8,0.3-0.9,2-0.2,2.5l1.9,0.3
			c4.3,0.7,4.7,1.1,4.7,8v22.3c0,6.9-0.4,7.3-4.7,8l-1.9,0.3c-0.7,0.5-0.6,2.2,0.2,2.5c3.9-0.2,7-0.3,10.1-0.3h8.2
			c2.6,0,5.2,0,7.9,0.1C525.8,354.6,528.8,354.6,531.9,354.7 M581.9,343.7c-0.5-0.8-1.5-1.1-2.3-0.6c-0.1,0.1-0.2,0.1-0.3,0.2
			c-2.9,8-6.6,8.2-12.9,8.2c-5.7,0-7.5-0.4-8.4-1.4c-0.9-1-1.1-4.2-1.1-7.2v-7.2c0-2,0-2.3,1.9-2.3h4.7c5.3,0,5.8,0.8,6.6,3.8
			l0.5,1.9c0.7,0.6,1.7,0.6,2.4,0c0,0,0.1-0.1,0.1-0.2c-0.2-2.9-0.2-4.7-0.2-7.2c0-2.3,0-4.1,0.2-7c-0.6-0.7-1.6-0.9-2.3-0.3
			c-0.1,0-0.1,0.1-0.2,0.1l-0.5,1.9c-0.8,3-1.3,3.8-6.6,3.8h-4.7c-1.9,0-1.9-0.2-1.9-2v-11.1c0-3.1,0.1-3.2,3.6-3.2h4.4
			c2.4,0,6.9,0,8.5,2.4c0.9,1.5,1.5,3.1,1.8,4.8c0.7,0.7,1.9,0.6,2.5-0.1c0,0,0-0.1,0.1-0.1c-0.5-4.3-1-9-1.1-10.1
			c-3.1,0.3-6.2,0.4-9.2,0.3h-14.1c-1.6,0-3.2,0-4.8-0.1c-1.6-0.1-3-0.1-4.5-0.2c-0.7,0.6-0.9,1.6-0.3,2.4c0,0,0.1,0.1,0.1,0.1
			l1.4,0.3c3.8,0.8,4.2,1.1,4.2,8V344c0,6.9-0.4,7.5-4.7,8l-2.7,0.3c-0.7,0.5-0.6,2.2,0.2,2.5c4.8-0.2,7.9-0.3,11-0.3h8.8
			c2.7,0,5.4,0,8.2,0.1c2.8,0.1,5.7,0.1,8.8,0.2C579.9,352.9,581.3,347.9,581.9,343.7"/>
		<path class="st1" d="M536.7,381.5c-1.2,0.1-2.2,0.1-3.3,0.1c-1.1,0-2.1,0-3.4-0.1c-0.3,0.2-0.3,0.5-0.1,0.8c0,0,0,0.1,0.1,0.1
			l0.6,0.1c0.8,0.1,1.5,0.4,1.5,0.6c-0.6,1.6-1.4,3.1-2.3,4.6c-1,2-2.2,4.1-3.3,5.9c-1.4-2.4-2.7-5.2-4-7.8
			c-0.4-0.9-0.8-1.8-1.1-2.7c0-0.3,0.2-0.4,1.5-0.6l0.5-0.1c0.2-0.2,0.2-0.8-0.1-0.9c-0.9,0.1-2.1,0.1-3.8,0.1s-2.9,0-4.1-0.1
			c-0.2,0.2-0.3,0.6-0.1,0.9l1,0.2c1,0.2,1.6,0.4,2.8,2.7l4.1,8.1c0.8,1.3,1.2,2.8,1.1,4.3v1.8c0,3.8-0.1,4.2-2.1,4.5l-1.1,0.1
			c-0.2,0.3-0.2,0.6,0.1,0.9c1.9-0.1,3.1-0.1,4.6-0.1c1.5,0,2.6,0,4.8,0.1c0.2-0.2,0.3-0.6,0.1-0.9l-1.3-0.1
			c-1.9-0.1-2.1-0.7-2.1-4.5v-1.8c0-2.7,0.1-3,1.6-5.7l2.2-3.8c1.8-3,2.8-5.2,4.6-5.5l1-0.2C536.9,382.1,536.9,381.8,536.7,381.5
			C536.7,381.5,536.7,381.5,536.7,381.5 M494.1,380.7c-0.1-0.1-0.5-0.2-0.6-0.1c-0.5,0.9-0.8,1-2.7,1h-14.2c-1.6,0-2.8,0-3-1.1
			c-0.2-0.1-0.5-0.1-0.7,0c-0.3,1.8-0.8,3.5-1.3,5.2c0.2,0.3,0.6,0.4,0.9,0.3c0,0,0,0,0,0c0.3-0.9,0.9-1.7,1.6-2.4
			c0.9-0.8,2.8-0.9,4.3-0.9h1.9c1,0,1,0,1,1.1v15.6c0,3.7-0.2,4.2-2.2,4.4l-1.3,0.1c-0.2,0.2-0.2,0.6,0,0.9c0,0,0,0,0,0
			c2.2-0.1,3.5-0.1,4.9-0.1s2.6,0,4.6,0.1c0.2-0.1,0.3-0.7,0.1-0.9l-1.1-0.1c-2-0.2-2.1-0.7-2.1-4.4v-15.6c0-1.2,0-1.2,1-1.2h2.5
			c1.4-0.1,2.8,0.2,4.1,0.9c0.5,0.4,0.8,1.7,0.9,2.6c0.2,0.2,0.8,0.2,0.9-0.1C493.4,384.3,493.6,382.5,494.1,380.7 M447.1,399.4
			v-12.5c0-3.7,0.1-4.3,2.1-4.5l0.9-0.1c0.2-0.1,0.1-0.8-0.1-0.9c-1.8,0.1-2.9,0.1-4.3,0.1s-2.7,0-4.4-0.1c-0.2,0.1-0.3,0.7-0.1,0.9
			l0.9,0.1c2.1,0.2,2.1,0.8,2.1,4.5v12.5c0,3.7-0.1,4.2-2.1,4.5l-0.9,0.1c-0.2,0.3-0.2,0.6,0.1,0.9c1.8-0.1,3-0.1,4.4-0.1
			s2.6,0,4.3,0.1c0.2-0.2,0.3-0.6,0.1-0.9l-0.9-0.1C447.2,403.6,447.1,403.1,447.1,399.4 M409.8,386c0-1.6,0.7-3.9,4.2-3.9
			s4.3,2.3,4.8,4c0.3,0.2,0.7,0.2,0.9-0.1c0-1.4-0.2-2.9-0.6-4.3c-0.4,0-0.8-0.1-1.2-0.2c-1.1-0.3-2.2-0.5-3.3-0.5
			c-4.5,0-7.1,2.7-7.1,6c0,2.9,2,4.9,3.8,6l3.3,2.2c2.6,1.6,2.9,3.4,2.9,4.9c0,2.1-1.4,4-4.4,4c-4.1,0-5.5-3.4-6-5.2
			c-0.1-0.2-0.7-0.1-0.8,0.1c0.1,1.7,0.4,3.3,1,4.9c1.7,0.9,3.6,1.3,5.5,1.3c4.5,0,7.5-2.6,7.5-6.5c0-3.3-2.2-5.4-4.4-6.7l-2.8-1.8
			C411.5,389.4,409.8,388,409.8,386 M384.8,404.9c0.1-0.1,0.2-0.3,0.1-0.4c0,0-0.1-0.1-0.1-0.1c-0.9-0.1-1.7-0.4-2.4-1
			c-2.4-2-4.2-4.8-7-9.3c-0.2-0.3-0.4-0.6-0.2-0.8c1.8-0.7,4.4-2.5,4.4-5.9c0.1-2.1-1.1-4-2.9-4.9c-1.8-0.8-3.8-1.1-5.9-1
			c-3.4,0-5.9,0.1-7.8,0.3c-0.2,0.2-0.3,0.6-0.1,0.8c0,0,0,0,0.1,0.1l1.1,0.1c1.4,0.2,1.5,0.8,1.5,4.1v12.6c0,3.7-0.1,4.1-2.1,4.4
			l-0.9,0.1c-0.2,0.3-0.2,0.6,0.1,0.9c1.6-0.1,2.9-0.1,4.4-0.1s2.6,0,4.2,0.1c0.2-0.2,0.3-0.6,0.1-0.9l-0.7-0.1
			c-2-0.3-2.1-0.7-2.1-4.4V395c0-0.7,0.1-0.8,1.6-0.8c1-0.2,2,0.3,2.5,1.1c1.1,1.6,2.5,4,3.4,5.3c2.5,3.5,4.3,4.4,7.3,4.4
			C383.8,405.1,384.4,405.1,384.8,404.9 M374.6,392.3c-1.1,0.7-2.4,1.1-3.7,1c-0.8,0.1-1.6,0-2.4-0.2c-0.1-0.4-0.1-0.8-0.1-1.2v-8.2
			c0-1,0.1-1.1,2.3-1.1c3.9,0,5.6,2.6,5.6,5.4c0,2.4-0.8,3.6-1.8,4.3 M339.6,404.9c0.7-1.6,1.2-3.2,1.6-4.9
			c-0.2-0.3-0.6-0.4-0.9-0.2c-0.5,1.3-1.4,2.5-2.5,3.4c-0.8,0.4-1.8,0.5-4.5,0.5c-3.1,0-3.8-0.4-4.2-0.8c-0.6-0.6-0.7-1.8-0.7-3.6
			v-4.9c0-0.9,0.1-1,1.1-1h2c0.9,0,1.8,0,2.7,0.2c0.6,0.2,1,0.7,1.1,1.3l0.3,1.4c0.2,0.2,0.8,0.2,0.9,0c0-0.8-0.1-2.1-0.1-3.4
			s0.1-2.7,0.1-3.5c-0.1-0.2-0.7-0.2-0.9,0l-0.3,1.4c-0.2,0.9-0.4,1.1-0.8,1.2c-1,0.2-2,0.3-3,0.2h-2c-1,0-1.1,0-1.1-1v-7
			c0-1.3,0-1.4,1-1.4h2.5c1.1,0,2.3,0,3.4,0.2c1.8,0.5,2.1,1.7,2.7,3.3c0.3,0.2,0.6,0.2,0.9-0.1c-0.1-1.6-0.3-3.1-0.6-4.7
			c-0.4,0.1-2.5,0.1-4.7,0.1H327c-1.4,0-2.6,0-4.1-0.1c-0.2,0.1-0.3,0.7-0.1,0.9l0.6,0.1c2.1,0.2,2.1,0.8,2.1,4.4v12.6
			c0,3.7-0.2,4.2-2.2,4.4l-1.2,0.1c-0.2,0.3-0.2,0.6,0.1,0.9c2.1-0.1,3.3-0.1,4.8-0.1h3.1C333.3,404.7,336.4,404.7,339.6,404.9
			 M300.8,382.4c0.2-0.3,0.2-0.6-0.1-0.9c-1.1,0.1-2.2,0.1-3.4,0.1c-1.3,0-2.7,0-3.6-0.1c-0.3,0.2-0.3,0.6-0.1,0.9c0,0,0,0,0,0
			l0.6,0.1c1.2,0.1,1.6,0.4,1.6,0.7c0,0.5-0.1,0.9-0.3,1.4c-0.6,1.5-2.2,5.5-3.2,7.8c-0.8,1.9-2.3,5.5-3.4,7.8c-1.8-4-3.4-8-5-12.1
			c-0.7-1.6-1.3-3.2-1.8-4.9c0-0.3,0.3-0.5,1.6-0.7l0.5-0.1c0.2-0.3,0.2-0.6,0-0.9c0,0,0,0,0,0c-1.5,0.1-2.7,0.1-4.2,0.1
			s-2.6,0-3.6-0.1c-0.3,0.2-0.3,0.6-0.1,0.8c0,0,0,0,0,0.1l0.6,0.1c1.5,0.2,2,0.9,2.8,2.9l6.2,15.2c0.6,1.5,1.2,3.1,1.6,4.7
			c0.2,0.1,0.3,0.1,0.5,0.1c0.1,0,0.3,0,0.4-0.1c0.6-1.9,2.2-5.9,3.6-9.1l1.9-4.3c1.2-2.8,2.5-5.4,3.9-8.1c0.4-0.7,1-1.2,1.8-1.2
			L300.8,382.4z M251.8,399.4v-12.4c0-3.7,0.1-4.3,2.1-4.5l0.9-0.1c0.2-0.1,0.1-0.8-0.1-0.9c-1.8,0.1-2.9,0.1-4.3,0.1
			s-2.7,0-4.4-0.1c-0.2,0.1-0.3,0.7-0.1,0.9l0.9,0.1c2.1,0.2,2.1,0.8,2.1,4.5v12.5c0,3.7-0.1,4.2-2.1,4.5l-0.9,0.1
			c-0.2,0.3-0.2,0.6,0.1,0.9c1.8-0.1,2.9-0.1,4.4-0.1s2.6,0,4.3,0.1c0.2-0.2,0.3-0.6,0.1-0.9l-0.9-0.1
			C251.9,403.6,251.8,403.1,251.8,399.4 M224.5,382.4c0.2-0.2,0.2-0.6-0.1-0.8c0,0,0,0,0,0c-1.2,0.1-2.1,0.1-3.6,0.1
			c-1.3,0-2.5,0-4.1-0.1c-0.3,0.1-0.3,0.7-0.1,0.9l0.6,0.1c1.4,0.2,2,0.4,2.2,0.7c0.7,1.1,0.7,5.6,0.7,7.3v7.5c0.1,0.5,0,1-0.1,1.5
			h-0.1c-1.6-1.7-3.4-3.6-5.8-6.3l-3.4-3.8c-1.1-1.3-5.3-5.9-6-7.7c-0.5,0.1-1.1,0.1-1.6,0.1c-0.6,0-2.5,0-4-0.1
			c-0.3,0.2-0.3,0.6-0.1,0.9c0,0,0,0,0,0l0.6,0.1c0.8,0,1.6,0.3,2.2,0.8c0.6,0.7,0.9,1.6,0.8,2.5V396c0,1.7,0,6-0.5,7.2
			c-0.2,0.4-0.7,0.6-1.5,0.7l-1,0.1c-0.2,0.3-0.2,0.6,0.1,0.9c1.2-0.1,2.2-0.1,3.6-0.1c1.3,0,2.5,0,4.1,0.1c0.2-0.2,0.3-0.6,0.1-0.9
			l-1.1-0.1c-0.7,0-1.3-0.2-1.8-0.7c-0.6-1.1-0.6-5.6-0.6-7.3v-7.7c0-0.8,0-1.5,0.2-2.3h0.1c0.7,0.8,3.1,3.6,4.1,4.7l8.1,9.2
			c3,3.5,4.1,4.7,4.5,5.3c0.3,0,0.5-0.1,0.7-0.4c-0.1-0.9-0.1-5.1-0.1-6.1v-8.4c0-1.6-0.1-6,0.5-7.2c0.1-0.3,0.8-0.6,2-0.7
			L224.5,382.4z M177.6,382.4c0.2-0.3,0.2-0.6-0.1-0.8c-1.3,0.1-2.2,0.1-3.7,0.1s-2.7,0-4-0.1c-0.2,0.2-0.3,0.6-0.1,0.8l0.9,0.1
			c0.7,0,1.3,0.2,1.8,0.7c0.6,1.1,0.7,5.1,0.7,7.3v4c0,5.3-1.9,9.3-7,9.3c-5.4,0-7.1-3.7-7.1-9.4v-7.6c0-3.6,0.1-4.2,2.1-4.4
			l0.8-0.1c0.2-0.3,0.2-0.6-0.1-0.8c-1.7,0.1-2.9,0.1-4.3,0.1c-1.4,0-2.6,0-4.4-0.1c-0.2,0.2-0.3,0.6-0.1,0.8l0.9,0.1
			c2,0.2,2.1,0.8,2.1,4.4v8.3c0,4.2,0.9,6.7,2.7,8.3c1.9,1.4,4.2,2,6.6,1.9c2.5,0.1,4.9-0.8,6.7-2.6c2-2.1,2.4-5.3,2.4-8.4v-4
			c0-2,0-6,0.5-7.1c0.2-0.5,0.9-0.8,1.8-0.8L177.6,382.4z"/>
		<path class="st1" d="M552.4,401.3h0.7c0.7,0,1.1-0.3,1.1-0.8s-0.5-0.8-1.1-0.8c-0.2,0-0.4,0-0.7,0.1L552.4,401.3z M551.8,399.3
			c0.4-0.1,0.8-0.1,1.2-0.1c0.5,0,1,0.1,1.4,0.4c0.2,0.2,0.4,0.5,0.4,0.8c0,0.5-0.4,1-0.9,1.1l0,0c0.4,0.2,0.6,0.5,0.7,0.9
			c0.1,0.4,0.2,0.8,0.4,1.3h-0.6c-0.1-0.3-0.2-0.7-0.3-1.1c-0.1-0.6-0.4-0.9-1-0.9h-0.7v1.9h-0.6V399.3z M553.2,398.3
			c-1.8,0-3.2,1.4-3.2,3.2c0,1.8,1.4,3.2,3.2,3.2s3.2-1.4,3.2-3.2c0,0,0,0,0,0C556.4,399.7,555,398.3,553.2,398.3 M553.2,405.6
			c-2.2,0-4.1-1.8-4.1-4s1.8-4.1,4-4.1c2.2,0,4.1,1.8,4.1,4c0,0,0,0.1,0,0.1C557.2,403.8,555.4,405.5,553.2,405.6"/>
	</g>
</g>
</svg>
