<svg xmlns="http://www.w3.org/2000/svg" xmlns:xlink="http://www.w3.org/1999/xlink" version="1.1" width="1280pt" height="800pt" viewBox="0 0 1280 800">
<defs>
<clipPath id="clip_0">
<path transform="matrix(1,0,0,-1,0,800)" d="M0 800H1280V0H0Z"/>
</clipPath>
</defs>
<g id="layer_1" data-name="Layer 1">
<g clip-path="url(#clip_0)">
<path transform="matrix(1,0,0,-1,313.7905,286.9463)" d="M0 0C74.752-5.921 137.663-33.675 168.748-71.422H176.149C143.954-29.235 75.123 1.48-6.661 6.661-4.171 4.729-1.933 2.491 0 0" fill="#046648"/>
<path transform="matrix(1,0,0,-1,258.2812,280.65528)" d="M0 0C-81.043-5.181-149.135-35.896-180.96-78.083H-173.559C-142.844-40.336-80.303-12.952-5.921-6.661-4.366-4.101-2.36-1.844 0 0" fill="#046648"/>
<path transform="matrix(1,0,0,-1,0,800)" d="M297.508 406.476H305.279V395.00404H297.508Z" fill="#046648"/>
<path transform="matrix(1,0,0,-1,0,800)" d="M276.044 406.476H283.815V395.00404H276.044Z" fill="#046648"/>
<path transform="matrix(1,0,0,-1,0,800)" d="M255.321 406.476H263.092V395.00404H255.321Z" fill="#046648"/>
<path transform="matrix(1,0,0,-1,0,800)" d="M234.967 406.476H242.73799V395.00404H234.967Z" fill="#046648"/>
<path transform="matrix(1,0,0,-1,0,800)" d="M318.971 406.476H326.742V395.00404H318.971Z" fill="#046648"/>
<path transform="matrix(1,0,0,-1,0,800)" d="M340.435 406.476H347.836V395.00404H340.435Z" fill="#046648"/>
<path transform="matrix(1,0,0,-1,0,800)" d="M361.158 406.476H368.929V395.00404H361.158Z" fill="#046648"/>
<path transform="matrix(1,0,0,-1,279.7446,348.7466)" d="M0 0C0-3.474 2.817-6.291 6.292-6.291 9.766-6.291 12.583-3.474 12.583 0 12.583 3.475 9.766 6.291 6.291 6.291 2.837 6.312 .021 3.528 0 .074Z" fill="#046648"/>
<path transform="matrix(1,0,0,-1,0,800)" d="M297.508 387.232H305.279V375.76H297.508Z" fill="#046648"/>
<path transform="matrix(1,0,0,-1,0,800)" d="M276.044 387.232H283.815V375.76H276.044Z" fill="#046648"/>
<path transform="matrix(1,0,0,-1,0,800)" d="M255.321 387.232H263.092V375.76H255.321Z" fill="#046648"/>
<path transform="matrix(1,0,0,-1,0,800)" d="M234.967 387.232H242.73799V375.76H234.967Z" fill="#046648"/>
<path transform="matrix(1,0,0,-1,0,800)" d="M318.971 387.232H326.742V375.76H318.971Z" fill="#046648"/>
<path transform="matrix(1,0,0,-1,0,800)" d="M340.435 387.232H347.836V375.76H340.435Z" fill="#046648"/>
<path transform="matrix(1,0,0,-1,0,800)" d="M361.158 387.232H368.929V375.76H361.158Z" fill="#046648"/>
<path transform="matrix(1,0,0,-1,0,800)" d="M276.044 367.619H283.815V356.14698H276.044Z" fill="#046648"/>
<path transform="matrix(1,0,0,-1,0,800)" d="M255.321 367.619H263.092V356.14698H255.321Z" fill="#046648"/>
<path transform="matrix(1,0,0,-1,0,800)" d="M234.967 367.619H242.73799V356.14698H234.967Z" fill="#046648"/>
<path transform="matrix(1,0,0,-1,0,800)" d="M318.971 367.619H326.742V356.14698H318.971Z" fill="#046648"/>
<path transform="matrix(1,0,0,-1,0,800)" d="M340.435 367.619H347.836V356.14698H340.435Z" fill="#046648"/>
<path transform="matrix(1,0,0,-1,0,800)" d="M361.158 367.619H368.929V356.14698H361.158Z" fill="#046648"/>
<path transform="matrix(1,0,0,-1,287.5161,282.50538)" d="M0 0-4.071 44.407-7.401 .37C-15.199-.902-21.142-7.302-21.833-15.172L-10.362-11.842H3.701L12.582-15.172C11.655-8.116 6.763-2.217 0 0" fill="#046648"/>
<path transform="matrix(1,0,0,-1,0,800)" d="M112.107 381.312H118.028V371.691H112.107Z" fill="#046648"/>
<path transform="matrix(1,0,0,-1,0,800)" d="M128.02 381.312H133.94101V371.691H128.02Z" fill="#046648"/>
<path transform="matrix(1,0,0,-1,0,800)" d="M143.192 381.312H149.483V371.691H143.192Z" fill="#046648"/>
<path transform="matrix(1,0,0,-1,0,800)" d="M112.107 398.705H118.028V389.08299H112.107Z" fill="#046648"/>
<path transform="matrix(1,0,0,-1,0,800)" d="M128.02 398.705H133.94101V389.08299H128.02Z" fill="#046648"/>
<path transform="matrix(1,0,0,-1,0,800)" d="M143.192 398.705H149.483V389.08299H143.192Z" fill="#046648"/>
<path transform="matrix(1,0,0,-1,0,800)" d="M112.107 363.549H118.028V353.928H112.107Z" fill="#046648"/>
<path transform="matrix(1,0,0,-1,0,800)" d="M143.192 363.549H149.483V353.928H143.192Z" fill="#046648"/>
<path transform="matrix(1,0,0,-1,133.9404,390.5635)" d="M0 0C-.001 1.839-1.494 3.329-3.333 3.328-5.17 3.326-6.659 1.837-6.661 0V-4.071H-.37Z" fill="#046648"/>
<path transform="matrix(1,0,0,-1,0,800)" d="M469.957 381.312H475.878V371.691H469.957Z" fill="#046648"/>
<path transform="matrix(1,0,0,-1,0,800)" d="M485.499 381.312H491.41999V371.691H485.499Z" fill="#046648"/>
<path transform="matrix(1,0,0,-1,0,800)" d="M501.042 381.312H506.96299V371.691H501.042Z" fill="#046648"/>
<path transform="matrix(1,0,0,-1,0,800)" d="M469.957 398.705H475.878V389.08299H469.957Z" fill="#046648"/>
<path transform="matrix(1,0,0,-1,0,800)" d="M485.499 398.705H491.41999V389.08299H485.499Z" fill="#046648"/>
<path transform="matrix(1,0,0,-1,0,800)" d="M501.042 398.705H506.96299V389.08299H501.042Z" fill="#046648"/>
<path transform="matrix(1,0,0,-1,0,800)" d="M469.957 363.549H475.878V353.928H469.957Z" fill="#046648"/>
<path transform="matrix(1,0,0,-1,0,800)" d="M501.042 363.549H506.96299V353.928H501.042Z" fill="#046648"/>
<path transform="matrix(1,0,0,-1,485.1289,390.9336)" d="M0 0V0C-.37 0 0-.37 0 0" fill="#046648"/>
<path transform="matrix(1,0,0,-1,491.79,390.5635)" d="M0 0C0 1.839-1.491 3.331-3.331 3.331-5.17 3.331-6.661 1.839-6.661 0V-4.071H-.37V0Z" fill="#046648"/>
<path transform="matrix(1,0,0,-1,248.6597,487.8896)" d="M0 0C0 1.84 1.491 3.33 3.331 3.33 5.048 3.377 6.505 2.081 6.661 .37 6.516-1.552 5.186-3.178 3.331-3.7 1.551-3.293 .219-1.812 0 0M7.031-12.212C7.031-14.256 5.375-15.913 3.331-15.913 1.423-15.922-.179-14.48-.37-12.582-.472-10.538 1.102-8.799 3.146-8.696 5.189-8.595 6.929-10.168 7.031-12.212M65.871-15.913C62.541-15.913 62.17-10.731 62.17-6.291 62.17-1.851 62.541 3.33 65.871 3.33 69.202 3.33 69.572-1.851 69.572-6.291 69.572-10.731 69.202-15.913 65.871-15.913M129.521-9.991H121.75L129.521 1.851ZM35.526 182.07C33.891 182.07 32.565 180.745 32.565 179.11 32.565 177.475 33.891 176.149 35.526 176.149 37.161 176.149 38.486 177.475 38.486 179.11 38.507 180.725 37.215 182.05 35.601 182.07 35.576 182.071 35.551 182.071 35.526 182.07M271.996 95.476H260.894V104.728H250.532V111.389H229.438V104.728H219.077V95.846H209.455V29.604H235.359V46.998H244.611V29.604H270.885V24.054H238.32C203.164-17.393 121.75-52.179 31.455-52.179-58.84-52.179-132.112-17.393-167.268 24.054H-207.975V95.846H-197.983V106.948H-186.511V116.199H-99.917V108.798H-89.555V99.546H-85.854V95.846H-96.956V105.098H-107.318V111.759H-128.412V105.098H-138.773V96.216H-148.395V29.975H-122.49V47.368H-113.239V29.975H-74.012V104.357L-76.603 106.948-53.289 130.262H13.692V151.725H11.472V153.946L14.433 156.906H17.763V180.59L14.802 181.33 14.063 183.551 24.794 186.511V155.796H30.715V187.251H40.707V155.796H46.628V186.511L54.029 183.551 53.289 181.7 50.329 180.96V155.796H52.919L55.139 153.206V150.985H22.574V122.49H52.919V129.521H112.499L135.812 106.208 133.222 103.617H-28.125V29.235H45.888V46.628C46.543 50.103 49.891 52.388 53.366 51.731 55.956 51.243 57.981 49.218 58.47 46.628V29.234H149.505V95.476H159.867V106.578H171.338V115.829H257.933V108.058H268.295V98.807H271.996ZM-6.661 0C-6.561-2.827-4.597-5.244-1.85-5.921-5.07-6.752-7.34-9.628-7.401-12.952-7.401-18.873-2.59-21.094 3.701-21.094 9.992-21.094 14.802-18.873 14.802-12.582 14.742-9.258 12.471-6.382 9.251-5.551 12.15-4.636 14.105-1.929 14.063 1.11 14.063 5.921 9.992 8.512 4.441 8.512-1.85 8.142-6.661 5.921-6.661 0M-59.95-20.724H-52.549V7.401H-59.21L-68.832 1.11-65.501-4.07-60.32-.37V-20.724ZM65.871-21.094C75.123-21.094 76.973-13.692 76.973-6.661 76.973 .37 75.493 7.771 65.871 7.771 56.25 7.771 54.769 .37 54.769-6.661 54.769-13.692 56.62-21.094 65.871-21.094M129.151-20.724H136.183V-15.173H140.253V-9.991H136.183V7.771H128.042L116.569-9.252V-15.173H129.151Z" fill="#046648"/>
<path transform="matrix(1,0,0,-1,983.6025,547.8398)" d="M0 0C-2.591 3.701-4.811 7.401-5.921 9.252-9.252 15.543-8.882 15.173-15.543 16.283V9.252C-15.543-.37-15.913-3.7-4.441-4.44V-6.291H-34.046V-4.44C-25.534-2.96-24.794-3.7-24.794 9.252V28.125C-24.794 37.746-25.164 38.856-34.046 39.597V41.447H-12.212C-3.701 41.447 8.142 41.447 8.142 30.346 7.854 24.927 4.125 20.302-1.11 18.873L6.291 5.181C12.063-4.544 22.375-10.675 33.676-11.102H37.006C23.563-15.549 8.774-11.112 0 0M-15.543 38.856V18.873C-8.882 19.243-2.591 22.204-2.591 29.976-2.591 37.007-9.252 38.856-15.543 38.856" fill="#046648"/>
<path transform="matrix(1,0,0,-1,650.1768,508.2432)" d="M0 0C6.661-1.48 9.991-.74 10.361-8.512L10.731-25.534C11.102-34.416 9.252-42.557-2.221-42.557-7.349-42.805-12.29-40.608-15.542-36.636-17.382-32.45-18.145-27.87-17.763-23.313V-13.322C-17.763-3.7-18.133-.37-8.512 .37V2.221H-36.266V.37C-27.755-1.11-27.015-.37-27.015-13.322V-24.424C-27.015-30.345-27.755-37.006-22.944-41.447-18.284-45.015-12.526-46.847-6.661-46.628-.647-46.998 5.25-44.854 9.621-40.707 13.692-36.636 13.692-29.975 14.063-24.424L14.433-13.692C15.173-1.851 15.173-.74 21.834 .74H24.794L25.164 2.591H0Z" fill="#046648"/>
<path transform="matrix(1,0,0,-1,697.1748,541.91897)" d="M0 0C0-9.621-3.701-9.251-8.512-10.361V-12.212H14.432V-10.361C6.291-8.511 4.44-8.141 4.44 .74 4.07 8.512 3.7 15.913 4.07 23.685 15.542 11.103 42.557-19.983 42.557-19.983V18.503C42.557 29.976 42.927 32.936 49.218 33.676V35.526H27.754V33.676C35.896 32.565 38.116 31.455 38.486 22.944L38.856 .37C28.864 12.212 16.282 24.055 7.401 35.526H-8.882V33.676C0 32.195 .37 27.015 .37 19.613V0Z" fill="#046648"/>
<path transform="matrix(1,0,0,-1,787.4697,521.5654)" d="M0 0C0 12.582 .74 12.212 9.252 13.692V15.543H-18.503V13.692C-9.992 12.212-9.252 12.952-9.252 0V-16.652C-9.252-29.234-9.992-28.864-18.503-30.345V-32.195H9.252V-30.345C.74-28.864 0-29.604 0-16.652Z" fill="#046648"/>
<path transform="matrix(1,0,0,-1,841.1289,561.9023)" d="M0 0 15.172 37.007C19.983 48.479 21.833 52.919 28.124 53.659V55.51H5.921V53.659C14.802 52.179 17.022 52.549 9.621 33.306L3.33 18.134-6.291 41.447C-10.732 51.809-10.362 51.809-2.221 53.659V55.51H-27.385V53.659C-21.834 51.809-21.834 52.179-18.134 44.408Z" fill="#046648"/>
<path transform="matrix(1,0,0,-1,908.4795,531.1865)" d="M0 0C6.291 0 9.622 0 10.732-6.661H12.582C12.336-.738 12.459 5.194 12.952 11.102H11.103C9.252 4.811 6.291 4.07 0 4.07H-5.921V22.203H-.74C7.031 22.203 13.322 22.203 13.692 12.952H15.913L17.394 25.164H-24.424V23.313C-15.912 21.833-15.172 22.573-15.172 9.621V-7.031C-15.172-19.613-15.912-19.243-24.424-20.724V-22.574H18.134C19.922-17.335 20.798-11.827 20.724-6.291H18.503C16.653-14.433 12.582-19.613 3.331-19.613-5.921-19.613-6.291-16.283-6.291-9.252V0Z" fill="#046648"/>
<path transform="matrix(1,0,0,-1,1091.29,521.5654)" d="M0 0C0 12.582 .74 12.212 9.252 13.692V15.543H-18.503V13.692C-9.991 12.212-9.251 12.952-9.251 0V-16.652C-9.251-29.234-9.991-28.864-18.503-30.345V-32.195H9.252V-30.345C.74-28.864 0-29.604 0-16.652Z" fill="#046648"/>
<path transform="matrix(1,0,0,-1,1121.2656,520.08499)" d="M0 0C2.96 9.991 8.142 11.102 17.763 11.102V-18.133C17.763-30.715 17.022-30.345 7.031-31.825V-33.676H37.376V-31.825C27.754-30.345 26.645-31.085 26.645-18.133V11.102C36.266 11.102 41.446 9.991 44.407 0L46.258 .37 44.777 14.063H-.74L-2.221 .37Z" fill="#046648"/>
<path transform="matrix(1,0,0,-1,1208.9697,533.77737)" d="M0 0 1.11 2.591 9.252 17.393C11.617 21.892 16.047 24.937 21.094 25.534V27.385H.74V25.534C7.031 24.054 8.142 23.313 2.221 11.102L-1.479 3.331-7.771 16.283C-11.842 24.794-9.621 24.424-4.44 25.534V27.385H-28.864V25.534C-21.093 24.054-19.983 20.724-17.022 14.433L-9.251-1.48V-4.811C-9.251-17.393-9.991-17.022-19.613-18.503V-20.354H9.992V-18.503C-.739-17.763-.37-14.433-.37-4.811V0Z" fill="#046648"/>
<path transform="matrix(1,0,0,-1,1034.3008,555.2412)" d="M0 0C8.882 0 18.503 4.071 18.503 14.433 18.503 29.235-4.811 28.495-4.811 39.967-4.975 43.888-1.929 47.198 1.992 47.362 2.068 47.365 2.145 47.367 2.221 47.368 9.622 47.368 11.102 41.077 12.582 35.156H14.803L15.543 47.368C11.972 49.535 7.878 50.688 3.701 50.699-4.811 50.699-13.692 45.518-13.692 36.267-13.692 22.204 9.622 23.314 9.622 11.473 9.67 7.222 6.263 3.736 2.012 3.688 1.834 3.687 1.657 3.69 1.48 3.701-6.661 3.701-11.842 11.473-14.433 18.504L-16.652 18.134-14.063 4.812C-10.121 1.543-5.118-.169 0 0" fill="#046648"/>
<path transform="matrix(1,0,0,-1,1162.3418,318.0313)" d="M0 0C53.659 0 76.974-36.636 76.974-73.643 76.974-118.79 44.408-147.284 .37-147.284-43.667-147.284-76.232-118.42-76.232-73.272-76.603-28.865-43.667 0 0 0M-1.479-8.511C-35.525-8.511-49.218-41.817-49.218-68.832-49.218-99.547-32.935-138.773 2.961-138.773 35.896-138.773 50.329-105.468 50.329-76.973 49.219-41.817 28.865-8.511-1.479-8.511" fill="#046648"/>
<path transform="matrix(1,0,0,-1,680.8916,318.0313)" d="M0 0C53.659 0 76.973-36.636 76.973-73.643 76.973-118.79 44.407-147.284 .37-147.284-43.667-147.284-76.232-118.42-76.232-73.272-76.603-28.865-44.037 0 0 0M-1.85-8.511C-35.896-8.511-49.588-41.817-49.588-68.832-49.588-99.547-33.306-138.773 2.591-138.773 35.526-138.773 49.959-105.468 49.959-76.973 49.219-41.817 28.495-8.511-1.85-8.511" fill="#046648"/>
<path transform="matrix(1,0,0,-1,1033.5606,354.6675)" d="M0 0C.74 21.464 .74 28.125 25.904 31.455V34.786H-44.777V31.455C-19.613 28.125-19.243 21.833-18.873 0V-74.012C-19.613-95.846-19.613-102.137-44.777-105.467V-108.798H25.904V-105.467C.74-102.137 .37-95.846 0-74.012Z" fill="#046648"/>
<path transform="matrix(1,0,0,-1,828.917,354.6675)" d="M0 0V-23.314H83.634V0C82.894 21.464 82.894 28.125 57.729 31.455V34.786H128.411V31.455C103.247 28.125 102.877 21.833 102.507 0V-74.012C103.247-95.846 103.247-102.137 128.411-105.467V-108.798H57.729V-105.467C82.894-102.137 83.264-95.846 83.634-74.012V-36.266H0V-74.012C.739-95.846 .739-102.137 25.904-105.467V-108.798H-44.778V-105.467C-19.613-102.137-19.244-95.846-18.874-74.012V0C-19.613 21.464-19.613 28.125-44.778 31.455V34.786H25.904V31.455C.739 27.755 .739 21.464 0 0" fill="#046648"/>
</g>
</g>
</svg>
